# Blender 4.0.2
# www.blender.org
mtllib gbobj_screen.mtl
o screen
v 8.961544 -11.666793 3.780001
v 8.961544 -11.666793 3.600001
v 9.170131 -11.633756 3.600001
v 9.170131 -11.633756 3.780001
v 9.358299 -11.537879 3.600001
v 9.358299 -11.537879 3.780001
v 9.507630 -11.388548 3.600001
v 9.507630 -11.388548 3.780001
v 9.603507 -11.200379 3.600001
v 9.603507 -11.200379 3.780001
v 9.636544 -10.991793 3.780001
v 9.636544 -10.991793 3.600001
v -4.935075 -11.666793 3.780001
v -4.935075 -11.666793 3.600001
v -7.502927 -9.801138 3.780001
v -7.635075 -8.966792 3.780001
v -7.635075 -8.966792 3.600001
v -7.502927 -9.801138 3.600001
v -7.119421 -10.553813 3.780001
v -7.119421 -10.553813 3.600001
v -6.522095 -11.151138 3.780001
v -6.522095 -11.151138 3.600001
v -5.769421 -11.534645 3.780001
v -5.769421 -11.534645 3.600001
v -7.635075 10.808166 3.779999
v -7.635075 10.808166 3.599999
v -7.168661 11.450129 3.779999
v -6.960075 11.483166 3.779999
v -6.960075 11.483166 3.599999
v -7.168661 11.450129 3.599999
v -7.356830 11.354252 3.779999
v -7.356830 11.354252 3.599999
v -7.506161 11.204921 3.779999
v -7.506161 11.204921 3.599999
v -7.602038 11.016752 3.779999
v -7.602038 11.016752 3.599999
v 8.961544 11.483166 3.779999
v 8.961544 11.483166 3.599999
v 9.636544 10.808166 3.779999
v 9.636544 10.808166 3.599999
v 9.603507 11.016752 3.599999
v 9.603507 11.016752 3.779999
v 9.507630 11.204921 3.779999
v 9.507630 11.204921 3.599999
v 9.358299 11.354252 3.779999
v 9.358299 11.354252 3.599999
v 9.170131 11.450129 3.779999
v 9.170131 11.450129 3.599999
v -7.487911 10.979670 3.899999
v -7.286295 11.257170 3.899999
v -7.409079 11.134386 3.899999
v -6.960075 11.363166 3.899999
v -7.131579 11.336001 3.899999
v -7.515075 10.808166 3.899999
v 9.410548 11.134386 3.899999
v 9.287765 11.257170 3.899999
v 9.133049 11.336001 3.899999
v 8.961544 11.363166 3.899999
v 9.516544 10.808166 3.899999
v 9.489381 10.979670 3.899999
v -7.515075 -8.966792 3.900001
v -5.732338 -11.420518 3.900001
v -7.388801 -9.764056 3.900001
v -7.022338 -10.483278 3.900001
v -6.451560 -11.054056 3.900001
v -4.935075 -11.546792 3.900001
v 9.516544 -10.991793 3.900001
v 8.961544 -11.546792 3.900001
v 9.410548 -11.318013 3.900001
v 9.133049 -11.519629 3.900001
v 9.287765 -11.440797 3.900001
v 9.489381 -11.163297 3.900001
v 8.961544 11.400248 3.894126
v -6.960075 11.400248 3.894126
v 8.961544 11.433700 3.877081
v -6.960075 11.433700 3.877081
v -6.960075 11.460247 3.850533
v 8.961544 11.460247 3.850533
v 8.961544 11.477292 3.817081
v -6.960075 11.477292 3.817081
v -7.552157 10.808166 3.894126
v -7.166846 11.444543 3.817081
v -7.161579 11.428332 3.850533
v -7.153376 11.403084 3.877081
v -7.143038 11.371269 3.894126
v -7.353377 11.349501 3.817081
v -7.343359 11.335711 3.850533
v -7.327754 11.314233 3.877081
v -7.308092 11.287169 3.894126
v -7.501410 11.201468 3.817081
v -7.487620 11.191449 3.850533
v -7.466143 11.175845 3.877081
v -7.439079 11.156182 3.894126
v -7.596452 11.014937 3.817081
v -7.629201 10.808166 3.817081
v -7.580242 11.009670 3.850533
v -7.612157 10.808166 3.850533
v -7.554993 11.001466 3.877081
v -7.585609 10.808166 3.877081
v -7.523178 10.991129 3.894126
v 9.597921 11.014937 3.817081
v 9.630671 10.808166 3.817081
v 9.581711 11.009670 3.850533
v 9.613626 10.808166 3.850533
v 9.556462 11.001466 3.877081
v 9.587078 10.808166 3.877081
v 9.524648 10.991129 3.894126
v 9.553626 10.808166 3.894126
v 9.502879 11.201468 3.817081
v 9.489090 11.191449 3.850533
v 9.467612 11.175845 3.877081
v 9.440549 11.156182 3.894126
v 9.354847 11.349501 3.817081
v 9.344829 11.335711 3.850533
v 9.329224 11.314233 3.877081
v 9.309562 11.287169 3.894126
v 9.168316 11.444543 3.817081
v 9.163049 11.428332 3.850533
v 9.154845 11.403084 3.877081
v 9.144507 11.371269 3.894126
v -7.552157 -8.966792 3.894128
v -7.585609 -8.966792 3.877083
v -7.612157 -8.966792 3.850535
v -7.629201 -8.966792 3.817083
v 9.553626 -10.991793 3.894128
v 9.587078 -10.991793 3.877083
v 9.613626 -10.991793 3.850535
v 9.630671 -10.991793 3.817083
v -4.935075 -11.660919 3.817083
v -4.935075 -11.583875 3.894128
v -7.497342 -9.799323 3.817083
v -7.481131 -9.794056 3.850535
v -7.455883 -9.785852 3.877083
v -7.424067 -9.775516 3.894128
v -7.114669 -10.550361 3.817083
v -7.100880 -10.540341 3.850535
v -7.079402 -10.524737 3.877083
v -7.052339 -10.505075 3.894128
v -6.518643 -11.146387 3.817083
v -6.508624 -11.132597 3.850535
v -6.493020 -11.111119 3.877083
v -6.473357 -11.084056 3.894128
v -5.767606 -11.529059 3.817083
v -5.762339 -11.512849 3.850535
v -4.935075 -11.643874 3.850535
v -5.754135 -11.487600 3.877083
v -4.935075 -11.617327 3.877083
v -5.743797 -11.455786 3.894128
v 9.168316 -11.628170 3.817083
v 8.961544 -11.660919 3.817083
v 9.163049 -11.611959 3.850535
v 8.961544 -11.643874 3.850535
v 9.154845 -11.586711 3.877083
v 8.961544 -11.617327 3.877083
v 9.144507 -11.554896 3.894128
v 8.961544 -11.583875 3.894128
v 9.354847 -11.533128 3.817083
v 9.344829 -11.519338 3.850535
v 9.329224 -11.497860 3.877083
v 9.309562 -11.470797 3.894128
v 9.502879 -11.385096 3.817083
v 9.489090 -11.375076 3.850535
v 9.467612 -11.359472 3.877083
v 9.440549 -11.339809 3.894128
v 9.597921 -11.198564 3.817083
v 9.581711 -11.193297 3.850535
v 9.556462 -11.185093 3.877083
v 9.524648 -11.174756 3.894128
v 8.961544 -11.666793 3.585001
v 9.170131 -11.633756 3.585001
v 9.358299 -11.537879 3.585001
v 9.507630 -11.388548 3.600001
v 9.507630 -11.388548 3.585001
v 9.603507 -11.200379 3.585001
v 9.636544 -10.991793 3.585001
v -4.935075 -11.666793 3.585001
v -7.635075 -8.966792 3.600001
v -7.635075 -8.966792 3.585001
v -7.502927 -9.801138 3.585001
v -7.119421 -10.553813 3.600001
v -7.119421 -10.553813 3.585001
v -6.522095 -11.151138 3.600001
v -6.522095 -11.151138 3.585001
v -5.769421 -11.534645 3.600001
v -5.769421 -11.534645 3.585001
v -7.635075 10.808166 3.584999
v -6.960075 11.483166 3.599999
v -6.960075 11.483166 3.584999
v -7.168661 11.450129 3.584999
v -7.356830 11.354252 3.599999
v -7.356830 11.354252 3.584999
v -7.506161 11.204921 3.584999
v -7.602038 11.016752 3.599999
v -7.602038 11.016752 3.584999
v 8.961544 11.483166 3.584999
v 9.636544 10.808166 3.584999
v 9.603507 11.016752 3.584999
v 9.507630 11.204921 3.584999
v 9.358299 11.354252 3.584999
v 9.170131 11.450129 3.584999
vn 0.1564 -0.9877 -0.0000
vn 0.4540 -0.8910 -0.0000
vn 0.7071 -0.7071 -0.0000
vn 0.8910 -0.4540 -0.0000
vn 0.9877 -0.1564 -0.0000
vn -0.0000 -1.0000 -0.0000
vn -0.9877 -0.1564 -0.0000
vn -0.8910 -0.4540 -0.0000
vn -0.7071 -0.7071 -0.0000
vn -0.4540 -0.8910 -0.0000
vn -0.1564 -0.9877 -0.0000
vn -1.0000 -0.0000 -0.0000
vn -0.1564 0.9877 -0.0000
vn -0.4540 0.8910 -0.0000
vn -0.7071 0.7071 -0.0000
vn -0.8910 0.4540 -0.0000
vn -0.9877 0.1564 -0.0000
vn -0.0000 1.0000 -0.0000
vn 0.9877 0.1564 -0.0000
vn 0.8910 0.4540 -0.0000
vn 0.7071 0.7071 -0.0000
vn 0.4540 0.8910 -0.0000
vn 0.1564 0.9877 -0.0000
vn 1.0000 -0.0000 -0.0000
vn -0.0000 -0.0000 -1.0000
vn -0.0000 -0.0000 1.0000
vn -0.0000 0.1564 0.9877
vn -0.0000 0.4540 0.8910
vn -0.0000 0.8910 0.4540
vn -0.0000 0.7071 0.7071
vn -0.0000 0.9877 0.1565
vn -0.0000 0.9877 0.1564
vn -0.1564 0.0248 0.9874
vn -0.1546 0.9758 0.1546
vn -0.1546 0.9758 0.1545
vn -0.1397 0.8823 0.4495
vn -0.1113 0.7027 0.7027
vn -0.0248 0.1564 0.9874
vn -0.0717 0.4528 0.8887
vn -0.4485 0.8803 0.1545
vn -0.4055 0.7959 0.4495
vn -0.4055 0.7959 0.4496
vn -0.3230 0.6339 0.7027
vn -0.0719 0.1411 0.9874
vn -0.2081 0.4085 0.8887
vn -0.6986 0.6986 0.1545
vn -0.6986 0.6986 0.1546
vn -0.6316 0.6316 0.4495
vn -0.5031 0.5031 0.7027
vn -0.1120 0.1120 0.9874
vn -0.3242 0.3242 0.8887
vn -0.9758 0.1546 0.1545
vn -0.8803 0.4485 0.1545
vn -0.9758 0.1546 0.1546
vn -0.8803 0.4485 0.1546
vn -0.8823 0.1397 0.4495
vn -0.7959 0.4055 0.4496
vn -0.7959 0.4055 0.4495
vn -0.7027 0.1113 0.7027
vn -0.6339 0.3230 0.7027
vn -0.4528 0.0717 0.8887
vn -0.1411 0.0719 0.9874
vn -0.4085 0.2081 0.8887
vn 0.9758 0.1546 0.1546
vn 0.9758 0.1546 0.1545
vn 0.8823 0.1397 0.4495
vn 0.7027 0.1113 0.7027
vn 0.1564 0.0248 0.9874
vn 0.4528 0.0717 0.8887
vn 0.8803 0.4485 0.1545
vn 0.8803 0.4485 0.1546
vn 0.7959 0.4055 0.4495
vn 0.6339 0.3230 0.7027
vn 0.1411 0.0719 0.9874
vn 0.4085 0.2081 0.8887
vn 0.6986 0.6986 0.1546
vn 0.6316 0.6316 0.4495
vn 0.6316 0.6316 0.4496
vn 0.5031 0.5031 0.7027
vn 0.1120 0.1120 0.9874
vn 0.3242 0.3242 0.8887
vn 0.1546 0.9758 0.1546
vn 0.1546 0.9758 0.1545
vn 0.4485 0.8803 0.1545
vn 0.1397 0.8823 0.4495
vn 0.4055 0.7959 0.4495
vn 0.4055 0.7959 0.4496
vn 0.1113 0.7027 0.7027
vn 0.3230 0.6339 0.7027
vn 0.0717 0.4528 0.8887
vn 0.0248 0.1564 0.9874
vn 0.0719 0.1411 0.9874
vn 0.2082 0.4085 0.8887
vn 0.2081 0.4085 0.8887
vn -0.1564 -0.0000 0.9877
vn -0.4540 -0.0000 0.8910
vn -0.7071 -0.0000 0.7071
vn -0.8910 -0.0000 0.4540
vn -0.9877 -0.0000 0.1565
vn 0.1564 -0.0000 0.9877
vn 0.4540 -0.0000 0.8910
vn 0.8910 -0.0000 0.4540
vn 0.7071 -0.0000 0.7071
vn 0.9877 -0.0000 0.1564
vn 0.9877 -0.0000 0.1565
vn -0.1546 -0.9758 0.1546
vn -0.0248 -0.1564 0.9874
vn -0.9758 -0.1546 0.1546
vn -0.9758 -0.1546 0.1545
vn -0.8823 -0.1397 0.4495
vn -0.8823 -0.1397 0.4496
vn -0.7027 -0.1113 0.7027
vn -0.1564 -0.0248 0.9874
vn -0.4528 -0.0717 0.8887
vn -0.8803 -0.4485 0.1546
vn -0.8803 -0.4485 0.1545
vn -0.7959 -0.4055 0.4495
vn -0.7959 -0.4055 0.4496
vn -0.6340 -0.3230 0.7027
vn -0.6339 -0.3230 0.7027
vn -0.1411 -0.0719 0.9874
vn -0.4085 -0.2081 0.8887
vn -0.4485 -0.8803 0.1545
vn -0.6986 -0.6986 0.1546
vn -0.6316 -0.6316 0.4495
vn -0.6316 -0.6316 0.4496
vn -0.5031 -0.5031 0.7027
vn -0.1120 -0.1120 0.9874
vn -0.1119 -0.1120 0.9874
vn -0.3242 -0.3242 0.8887
vn -0.4485 -0.8803 0.1546
vn -0.1546 -0.9758 0.1545
vn -0.1397 -0.8823 0.4495
vn -0.1397 -0.8822 0.4496
vn -0.4055 -0.7959 0.4496
vn -0.4055 -0.7959 0.4495
vn -0.1113 -0.7028 0.7027
vn -0.1113 -0.7027 0.7027
vn -0.3230 -0.6339 0.7027
vn -0.0717 -0.4528 0.8887
vn -0.0719 -0.1411 0.9874
vn -0.2081 -0.4085 0.8887
vn 0.9758 -0.1546 0.1546
vn 0.1546 -0.9758 0.1546
vn 0.1546 -0.9758 0.1545
vn 0.1397 -0.8822 0.4496
vn 0.1397 -0.8823 0.4495
vn 0.1113 -0.7027 0.7027
vn 0.0248 -0.1564 0.9874
vn 0.0717 -0.4528 0.8887
vn 0.4485 -0.8803 0.1545
vn 0.4485 -0.8803 0.1546
vn 0.4055 -0.7959 0.4495
vn 0.4055 -0.7959 0.4496
vn 0.3230 -0.6339 0.7027
vn 0.0719 -0.1411 0.9874
vn 0.2081 -0.4085 0.8887
vn 0.6986 -0.6986 0.1546
vn 0.6986 -0.6986 0.1545
vn 0.6316 -0.6316 0.4495
vn 0.6316 -0.6316 0.4496
vn 0.5031 -0.5031 0.7027
vn 0.1120 -0.1120 0.9874
vn 0.3242 -0.3242 0.8887
vn 0.8803 -0.4485 0.1546
vn 0.8803 -0.4485 0.1545
vn 0.8823 -0.1397 0.4495
vn 0.7959 -0.4055 0.4496
vn 0.7959 -0.4055 0.4495
vn 0.7027 -0.1113 0.7027
vn 0.6339 -0.3230 0.7027
vn 0.4528 -0.0717 0.8887
vn 0.1564 -0.0248 0.9874
vn 0.1411 -0.0719 0.9874
vn 0.4085 -0.2081 0.8887
vn -0.0000 -0.1564 0.9877
vn -0.0000 -0.4540 0.8910
vn -0.0000 -0.7071 0.7071
vn -0.0000 -0.8910 0.4540
vn -0.0000 -0.9877 0.1564
vn -0.0000 -0.9877 0.1565
s 0
usemtl color_cad1ee
f 1//1 2//1 3//1
f 4//2 3//2 5//2
f 4//1 1//1 3//1
f 6//3 5//3 7//3
f 6//2 4//2 5//2
f 8//4 7//4 9//4
f 8//3 6//3 7//3
f 10//4 8//4 9//4
f 11//5 9//5 12//5
f 11//5 10//5 9//5
f 2//6 1//6 13//6
f 2//6 13//6 14//6
f 15//7 16//7 17//7
f 15//7 17//7 18//7
f 19//8 18//8 20//8
f 19//8 15//8 18//8
f 21//9 20//9 22//9
f 21//9 19//9 20//9
f 23//10 22//10 24//10
f 23//10 21//10 22//10
f 13//11 24//11 14//11
f 13//11 23//11 24//11
f 16//12 25//12 26//12
f 16//12 26//12 17//12
f 27//13 28//13 29//13
f 27//13 29//13 30//13
f 31//14 30//14 32//14
f 31//14 27//14 30//14
f 33//15 32//15 34//15
f 33//15 31//15 32//15
f 35//16 34//16 36//16
f 35//16 33//16 34//16
f 25//17 36//17 26//17
f 25//17 35//17 36//17
f 37//18 29//18 28//18
f 37//18 38//18 29//18
f 39//19 40//19 41//19
f 42//19 39//19 41//19
f 43//20 41//20 44//20
f 43//20 42//20 41//20
f 45//21 44//21 46//21
f 45//21 43//21 44//21
f 47//22 46//22 48//22
f 47//22 45//22 46//22
f 37//23 48//23 38//23
f 37//23 47//23 48//23
f 12//24 40//24 39//24
f 11//24 12//24 39//24
f 29//25 26//25 30//25
f 30//25 26//25 32//25
f 32//25 26//25 34//25
f 34//25 26//25 36//25
f 29//25 38//25 26//25
f 46//25 44//25 48//25
f 41//25 40//25 44//25
f 48//25 40//25 38//25
f 38//25 40//25 26//25
f 44//25 40//25 48//25
f 40//25 17//25 26//25
f 18//25 22//25 20//25
f 18//25 24//25 22//25
f 17//25 14//25 18//25
f 18//25 14//25 24//25
f 40//25 12//25 17//25
f 17//25 12//25 14//25
f 12//25 2//25 14//25
f 2//25 7//25 3//25
f 3//25 7//25 5//25
f 9//25 7//25 12//25
f 12//25 7//25 2//25
f 49//26 50//26 51//26
f 52//26 53//26 50//26
f 52//26 50//26 49//26
f 54//26 52//26 49//26
f 55//26 56//26 57//26
f 55//26 57//26 58//26
f 59//26 60//26 55//26
f 59//26 58//26 52//26
f 59//26 52//26 54//26
f 59//26 55//26 58//26
f 61//26 59//26 54//26
f 62//26 63//26 64//26
f 62//26 64//26 65//26
f 66//26 61//26 63//26
f 66//26 63//26 62//26
f 67//26 59//26 61//26
f 67//26 61//26 66//26
f 68//26 67//26 66//26
f 69//26 68//26 70//26
f 69//26 70//26 71//26
f 69//26 72//26 67//26
f 69//26 67//26 68//26
f 52//27 58//27 73//27
f 74//28 73//28 75//28
f 74//27 52//27 73//27
f 76//28 74//28 75//28
f 77//29 78//29 79//29
f 77//30 75//30 78//30
f 77//30 76//30 75//30
f 80//29 77//29 79//29
f 28//31 79//31 37//31
f 28//32 80//32 79//32
f 54//33 49//33 81//33
f 82//34 80//34 28//34
f 82//35 28//35 27//35
f 83//36 77//36 80//36
f 83//36 80//36 82//36
f 84//37 76//37 77//37
f 84//37 77//37 83//37
f 85//38 52//38 74//38
f 85//39 74//39 76//39
f 85//38 53//38 52//38
f 85//39 76//39 84//39
f 86//40 27//40 31//40
f 86//40 82//40 27//40
f 87//41 82//41 86//41
f 87//42 83//42 82//42
f 88//43 83//43 87//43
f 88//43 84//43 83//43
f 89//44 50//44 53//44
f 89//45 84//45 88//45
f 89//45 85//45 84//45
f 89//44 53//44 85//44
f 90//46 31//46 33//46
f 90//47 86//47 31//47
f 91//48 87//48 86//48
f 91//48 86//48 90//48
f 92//49 87//49 91//49
f 92//49 88//49 87//49
f 93//50 51//50 50//50
f 93//50 50//50 89//50
f 93//51 89//51 88//51
f 93//51 88//51 92//51
f 94//52 35//52 25//52
f 94//53 33//53 35//53
f 94//54 25//54 95//54
f 94//55 90//55 33//55
f 96//56 95//56 97//56
f 96//56 94//56 95//56
f 96//57 91//57 90//57
f 96//58 90//58 94//58
f 98//59 97//59 99//59
f 98//60 92//60 91//60
f 98//59 96//59 97//59
f 98//60 91//60 96//60
f 100//61 99//61 81//61
f 100//62 49//62 51//62
f 100//62 51//62 93//62
f 100//61 98//61 99//61
f 100//33 81//33 49//33
f 100//63 93//63 92//63
f 100//63 92//63 98//63
f 101//64 102//64 39//64
f 101//65 39//65 42//65
f 103//66 104//66 102//66
f 103//66 102//66 101//66
f 105//67 106//67 104//67
f 105//67 104//67 103//67
f 107//68 60//68 59//68
f 107//69 108//69 106//69
f 107//68 59//68 108//68
f 107//69 106//69 105//69
f 109//70 42//70 43//70
f 109//71 101//71 42//71
f 110//72 103//72 101//72
f 110//72 101//72 109//72
f 111//73 103//73 110//73
f 111//73 105//73 103//73
f 112//74 55//74 60//74
f 112//75 105//75 111//75
f 112//75 107//75 105//75
f 112//74 60//74 107//74
f 113//76 43//76 45//76
f 113//76 109//76 43//76
f 114//77 110//77 109//77
f 114//78 109//78 113//78
f 115//79 111//79 110//79
f 115//79 110//79 114//79
f 116//80 56//80 55//80
f 116//80 55//80 112//80
f 116//81 112//81 111//81
f 116//81 111//81 115//81
f 117//82 37//82 79//82
f 117//83 47//83 37//83
f 117//84 45//84 47//84
f 117//84 113//84 45//84
f 118//85 79//85 78//85
f 118//86 114//86 113//86
f 118//85 117//85 79//85
f 118//87 113//87 117//87
f 119//88 78//88 75//88
f 119//89 114//89 118//89
f 119//89 115//89 114//89
f 119//88 118//88 78//88
f 120//90 75//90 73//90
f 120//91 73//91 58//91
f 120//92 57//92 56//92
f 120//91 58//91 57//91
f 120//92 56//92 116//92
f 120//90 119//90 75//90
f 120//93 116//93 115//93
f 120//94 115//94 119//94
f 121//95 54//95 81//95
f 121//95 61//95 54//95
f 122//96 81//96 99//96
f 122//96 121//96 81//96
f 123//97 99//97 97//97
f 123//97 122//97 99//97
f 124//98 97//98 95//98
f 124//98 123//98 97//98
f 16//99 95//99 25//99
f 16//99 124//99 95//99
f 108//100 59//100 67//100
f 108//101 125//101 126//101
f 108//100 67//100 125//100
f 106//101 108//101 126//101
f 104//102 127//102 128//102
f 104//103 126//103 127//103
f 104//103 106//103 126//103
f 102//102 104//102 128//102
f 39//104 128//104 11//104
f 39//105 102//105 128//105
f 129//106 23//106 13//106
f 66//107 62//107 130//107
f 131//108 124//108 16//108
f 131//109 16//109 15//109
f 132//110 123//110 124//110
f 132//111 124//111 131//111
f 133//112 122//112 123//112
f 133//112 123//112 132//112
f 134//113 61//113 121//113
f 134//114 121//114 122//114
f 134//113 63//113 61//113
f 134//114 122//114 133//114
f 135//115 15//115 19//115
f 135//116 131//116 15//116
f 136//117 131//117 135//117
f 136//118 132//118 131//118
f 137//119 132//119 136//119
f 137//120 133//120 132//120
f 138//121 64//121 63//121
f 138//122 133//122 137//122
f 138//122 134//122 133//122
f 138//121 63//121 134//121
f 139//123 21//123 23//123
f 139//124 19//124 21//124
f 139//124 135//124 19//124
f 140//125 136//125 135//125
f 140//126 135//126 139//126
f 141//127 136//127 140//127
f 141//127 137//127 136//127
f 142//128 65//128 64//128
f 142//129 64//129 138//129
f 142//130 138//130 137//130
f 142//130 137//130 141//130
f 143//131 139//131 23//131
f 143//132 23//132 129//132
f 144//133 129//133 145//133
f 144//134 143//134 129//134
f 144//135 140//135 139//135
f 144//136 139//136 143//136
f 146//137 145//137 147//137
f 146//138 144//138 145//138
f 146//139 141//139 140//139
f 146//139 140//139 144//139
f 148//140 147//140 130//140
f 148//141 62//141 65//141
f 148//141 65//141 142//141
f 148//107 130//107 62//107
f 148//140 146//140 147//140
f 148//142 142//142 141//142
f 148//142 141//142 146//142
f 128//143 10//143 11//143
f 149//144 150//144 1//144
f 149//145 1//145 4//145
f 151//146 152//146 150//146
f 151//147 150//147 149//147
f 153//148 154//148 152//148
f 153//148 152//148 151//148
f 155//149 70//149 68//149
f 155//150 156//150 154//150
f 155//149 68//149 156//149
f 155//150 154//150 153//150
f 157//151 4//151 6//151
f 157//152 149//152 4//152
f 158//153 151//153 149//153
f 158//154 149//154 157//154
f 159//155 151//155 158//155
f 159//155 153//155 151//155
f 160//156 71//156 70//156
f 160//157 153//157 159//157
f 160//156 70//156 155//156
f 160//157 155//157 153//157
f 161//158 6//158 8//158
f 161//159 157//159 6//159
f 162//160 158//160 157//160
f 162//161 157//161 161//161
f 163//162 159//162 158//162
f 163//162 158//162 162//162
f 164//163 69//163 71//163
f 164//163 71//163 160//163
f 164//164 160//164 159//164
f 164//164 159//164 163//164
f 165//165 8//165 10//165
f 165//143 10//143 128//143
f 165//166 161//166 8//166
f 166//167 128//167 127//167
f 166//168 161//168 165//168
f 166//169 162//169 161//169
f 166//167 165//167 128//167
f 167//170 127//170 126//170
f 167//171 163//171 162//171
f 167//170 166//170 127//170
f 167//171 162//171 166//171
f 168//172 126//172 125//172
f 168//173 125//173 67//173
f 168//174 72//174 69//174
f 168//173 67//173 72//173
f 168//174 69//174 164//174
f 168//172 167//172 126//172
f 168//175 164//175 163//175
f 168//175 163//175 167//175
f 156//176 66//176 130//176
f 156//176 68//176 66//176
f 154//177 130//177 147//177
f 154//177 156//177 130//177
f 152//178 147//178 145//178
f 152//178 154//178 147//178
f 150//179 145//179 129//179
f 150//179 152//179 145//179
f 1//180 129//180 13//180
f 1//181 150//181 129//181
f 3//1 2//1 169//1
f 3//1 169//1 170//1
f 5//2 170//2 171//2
f 5//2 3//2 170//2
f 172//3 171//3 173//3
f 172//3 5//3 171//3
f 9//4 173//4 174//4
f 9//4 172//4 173//4
f 12//5 174//5 175//5
f 12//5 9//5 174//5
f 176//6 169//6 14//6
f 169//6 2//6 14//6
f 18//7 177//7 178//7
f 18//7 178//7 179//7
f 180//8 179//8 181//8
f 180//8 18//8 179//8
f 182//9 181//9 183//9
f 182//9 180//9 181//9
f 184//10 183//10 185//10
f 184//10 182//10 183//10
f 14//11 185//11 176//11
f 14//11 184//11 185//11
f 177//12 186//12 178//12
f 177//12 26//12 186//12
f 30//13 187//13 188//13
f 30//13 188//13 189//13
f 190//14 189//14 191//14
f 190//14 30//14 189//14
f 34//15 191//15 192//15
f 34//15 190//15 191//15
f 193//16 192//16 194//16
f 193//16 34//16 192//16
f 26//17 194//17 186//17
f 26//17 193//17 194//17
f 187//18 195//18 188//18
f 38//18 195//18 187//18
f 41//19 40//19 196//19
f 41//19 196//19 197//19
f 44//20 197//20 198//20
f 44//20 41//20 197//20
f 46//21 198//21 199//21
f 46//21 44//21 198//21
f 48//22 199//22 200//22
f 48//22 46//22 199//22
f 38//23 200//23 195//23
f 38//23 48//23 200//23
f 40//24 175//24 196//24
f 12//24 175//24 40//24
f 176//25 185//25 183//25
f 176//25 183//25 181//25
f 178//25 181//25 179//25
f 178//25 176//25 181//25
f 174//25 173//25 171//25
f 174//25 171//25 170//25
f 175//25 170//25 169//25
f 175//25 169//25 176//25
f 175//25 176//25 178//25
f 175//25 174//25 170//25
f 189//25 192//25 191//25
f 188//25 186//25 194//25
f 188//25 194//25 192//25
f 188//25 192//25 189//25
f 195//25 186//25 188//25
f 196//25 178//25 186//25
f 196//25 175//25 178//25
f 196//25 186//25 195//25
f 197//25 196//25 195//25
f 198//25 195//25 200//25
f 198//25 200//25 199//25
f 198//25 197//25 195//25
f 184//26 14//26 182//26
f 182//26 14//26 180//26
f 180//26 177//26 18//26
f 14//26 177//26 180//26
f 172//26 9//26 5//26
f 5//26 9//26 3//26
f 2//26 12//26 14//26
f 3//26 12//26 2//26
f 14//26 12//26 177//26
f 9//26 12//26 3//26
f 34//26 30//26 190//26
f 26//26 187//26 193//26
f 193//26 187//26 34//26
f 34//26 187//26 30//26
f 177//26 40//26 26//26
f 12//26 40//26 177//26
f 26//26 38//26 187//26
f 40//26 38//26 26//26
f 40//26 41//26 38//26
f 38//26 44//26 48//26
f 48//26 44//26 46//26
f 41//26 44//26 38//26
